# Blender 4.3.2
# www.blender.org
mtllib ArenaWall.mtl
o Cylinder
v 0.000000 -0.132442 -1.000000
v 0.000000 0.132442 -1.000000
v 0.195090 -0.132442 -0.980785
v 0.195090 0.132442 -0.980785
v 0.382683 -0.132442 -0.923880
v 0.382683 0.132442 -0.923880
v 0.555570 -0.132442 -0.831470
v 0.555570 0.132442 -0.831470
v 0.707107 -0.132442 -0.707107
v 0.707107 0.132442 -0.707107
v 0.831470 -0.132442 -0.555570
v 0.831470 0.132442 -0.555570
v 0.923880 -0.132442 -0.382683
v 0.923880 0.132442 -0.382683
v 0.980785 -0.132442 -0.195090
v 0.980785 0.132442 -0.195090
v 1.000000 -0.132442 0.000000
v 1.000000 0.132442 0.000000
v 0.980785 -0.132442 0.195090
v 0.980785 0.132442 0.195090
v 0.923880 -0.132442 0.382683
v 0.923880 0.132442 0.382683
v 0.831470 -0.132442 0.555570
v 0.831470 0.132442 0.555570
v 0.707107 -0.132442 0.707107
v 0.707107 0.132442 0.707107
v 0.555570 -0.132442 0.831470
v 0.555570 0.132442 0.831470
v 0.382683 -0.132442 0.923880
v 0.382683 0.132442 0.923880
v 0.195090 -0.132442 0.980785
v 0.195090 0.132442 0.980785
v 0.000000 -0.132442 1.000000
v 0.000000 0.132442 1.000000
v -0.195090 -0.132442 0.980785
v -0.195090 0.132442 0.980785
v -0.382683 -0.132442 0.923880
v -0.382683 0.132442 0.923880
v -0.555570 -0.132442 0.831470
v -0.555570 0.132442 0.831470
v -0.707107 -0.132442 0.707107
v -0.707107 0.132442 0.707107
v -0.831470 -0.132442 0.555570
v -0.831470 0.132442 0.555570
v -0.923880 -0.132442 0.382683
v -0.923880 0.132442 0.382683
v -0.980785 -0.132442 0.195090
v -0.980785 0.132442 0.195090
v -1.000000 -0.132442 0.000000
v -1.000000 0.132442 0.000000
v -0.980785 -0.132442 -0.195090
v -0.980785 0.132442 -0.195090
v -0.923880 -0.132442 -0.382683
v -0.923880 0.132442 -0.382683
v -0.831470 -0.132442 -0.555570
v -0.831470 0.132442 -0.555570
v -0.707107 -0.132442 -0.707107
v -0.707107 0.132442 -0.707107
v -0.555570 -0.132442 -0.831470
v -0.555570 0.132442 -0.831470
v -0.382683 -0.132442 -0.923880
v -0.382683 0.132442 -0.923880
v -0.195090 -0.132442 -0.980785
v -0.195090 0.132442 -0.980785
v -0.185684 0.132442 -0.933496
v 0.185684 0.132442 -0.933496
v 0.000000 0.132442 -0.951784
v -0.791380 0.132442 -0.528783
v -0.528783 0.132442 -0.791380
v -0.673013 0.132442 -0.673013
v -0.933496 0.132442 0.185684
v -0.951784 0.132442 0.000000
v -0.933496 0.132442 -0.185684
v -0.791380 0.132442 0.528783
v -0.528783 0.132442 0.791380
v -0.673013 0.132442 0.673013
v -0.185684 0.132442 0.933496
v 0.185684 0.132442 0.933496
v 0.000000 0.132442 0.951784
v 0.528783 0.132442 0.791380
v 0.791380 0.132442 0.528783
v 0.673013 0.132442 0.673013
v 0.933496 0.132442 0.185684
v 0.951784 0.132442 0.000000
v 0.933496 0.132442 -0.185684
v 0.528783 0.132442 -0.791380
v 0.791380 0.132442 -0.528783
v 0.673013 0.132442 -0.673013
v -0.364232 0.132442 -0.879334
v -0.879334 0.132442 0.364232
v 0.364232 0.132442 0.879334
v 0.879334 0.132442 -0.364232
v -0.879334 0.132442 -0.364232
v -0.364232 0.132442 0.879334
v 0.879334 0.132442 0.364232
v 0.364232 0.132442 -0.879334
v 0.000000 -0.132442 -0.951784
v 0.364232 -0.132442 -0.879334
v 0.185684 -0.132442 -0.933496
v 0.673013 -0.132442 -0.673013
v 0.879334 -0.132442 -0.364232
v 0.791380 -0.132442 -0.528783
v 0.879334 -0.132442 0.364232
v 0.951784 -0.132442 0.000000
v 0.933496 -0.132442 0.185684
v 0.364232 -0.132442 0.879334
v 0.673013 -0.132442 0.673013
v 0.528783 -0.132442 0.791380
v -0.364232 -0.132442 0.879334
v 0.000000 -0.132442 0.951784
v -0.185684 -0.132442 0.933496
v -0.879334 -0.132442 0.364232
v -0.673013 -0.132442 0.673013
v -0.791380 -0.132442 0.528783
v -0.951784 -0.132442 0.000000
v -0.879334 -0.132442 -0.364232
v -0.933496 -0.132442 -0.185684
v -0.673013 -0.132442 -0.673013
v -0.364232 -0.132442 -0.879334
v -0.528783 -0.132442 -0.791380
v 0.528783 -0.132442 -0.791380
v 0.791380 -0.132442 0.528783
v -0.528783 -0.132442 0.791380
v -0.791380 -0.132442 -0.528783
v -0.185684 -0.132442 -0.933496
v 0.933496 -0.132442 -0.185684
v -0.933496 -0.132442 0.185684
v 0.185684 -0.132442 0.933496
vn 0.0980 -0.0000 -0.9952
vn 0.2903 -0.0000 -0.9569
vn 0.4714 -0.0000 -0.8819
vn 0.6344 -0.0000 -0.7730
vn 0.7730 -0.0000 -0.6344
vn 0.8819 -0.0000 -0.4714
vn 0.9569 -0.0000 -0.2903
vn 0.9952 -0.0000 -0.0980
vn 0.9952 -0.0000 0.0980
vn 0.9569 -0.0000 0.2903
vn 0.8819 -0.0000 0.4714
vn 0.7730 -0.0000 0.6344
vn 0.6344 -0.0000 0.7730
vn 0.4714 -0.0000 0.8819
vn 0.2903 -0.0000 0.9569
vn 0.0980 -0.0000 0.9952
vn -0.0980 -0.0000 0.9952
vn -0.2903 -0.0000 0.9569
vn -0.4714 -0.0000 0.8819
vn -0.6344 -0.0000 0.7730
vn -0.7730 -0.0000 0.6344
vn -0.8819 -0.0000 0.4714
vn -0.9569 -0.0000 0.2903
vn -0.9952 -0.0000 0.0980
vn -0.9952 -0.0000 -0.0980
vn -0.9569 -0.0000 -0.2903
vn -0.8819 -0.0000 -0.4714
vn -0.7730 -0.0000 -0.6344
vn -0.6344 -0.0000 -0.7730
vn -0.4714 -0.0000 -0.8819
vn -0.0000 1.0000 -0.0000
vn -0.2903 -0.0000 -0.9569
vn -0.0980 -0.0000 -0.9952
vn -0.0000 -1.0000 -0.0000
vt 1.000000 0.500000
vt 1.000000 1.000000
vt 0.968750 1.000000
vt 0.968750 0.500000
vt 0.937500 1.000000
vt 0.937500 0.500000
vt 0.906250 1.000000
vt 0.906250 0.500000
vt 0.875000 1.000000
vt 0.875000 0.500000
vt 0.843750 1.000000
vt 0.843750 0.500000
vt 0.812500 1.000000
vt 0.812500 0.500000
vt 0.781250 1.000000
vt 0.781250 0.500000
vt 0.750000 1.000000
vt 0.750000 0.500000
vt 0.718750 1.000000
vt 0.718750 0.500000
vt 0.687500 1.000000
vt 0.687500 0.500000
vt 0.656250 1.000000
vt 0.656250 0.500000
vt 0.625000 1.000000
vt 0.625000 0.500000
vt 0.593750 1.000000
vt 0.593750 0.500000
vt 0.562500 1.000000
vt 0.562500 0.500000
vt 0.531250 1.000000
vt 0.531250 0.500000
vt 0.500000 1.000000
vt 0.500000 0.500000
vt 0.468750 1.000000
vt 0.468750 0.500000
vt 0.437500 1.000000
vt 0.437500 0.500000
vt 0.406250 1.000000
vt 0.406250 0.500000
vt 0.375000 1.000000
vt 0.375000 0.500000
vt 0.343750 1.000000
vt 0.343750 0.500000
vt 0.312500 1.000000
vt 0.312500 0.500000
vt 0.281250 1.000000
vt 0.281250 0.500000
vt 0.250000 1.000000
vt 0.250000 0.500000
vt 0.218750 1.000000
vt 0.218750 0.500000
vt 0.187500 1.000000
vt 0.187500 0.500000
vt 0.156250 1.000000
vt 0.156250 0.500000
vt 0.125000 1.000000
vt 0.125000 0.500000
vt 0.093750 1.000000
vt 0.093750 0.500000
vt 0.062500 1.000000
vt 0.062500 0.500000
vt 0.461040 0.162584
vt 0.471731 0.158156
vt 0.485388 0.203178
vt 0.490000 0.250000
vt 0.485388 0.296822
vt 0.471731 0.341844
vt 0.449553 0.383337
vt 0.419706 0.419706
vt 0.383337 0.449553
vt 0.341844 0.471731
vt 0.337416 0.461040
vt 0.376908 0.439931
vt 0.411523 0.411523
vt 0.439931 0.376908
vt 0.461040 0.337416
vt 0.474039 0.294564
vt 0.478428 0.250000
vt 0.474039 0.205436
vt 0.296822 0.485388
vt 0.250000 0.490000
vt 0.203178 0.485388
vt 0.158156 0.471731
vt 0.116663 0.449553
vt 0.080294 0.419706
vt 0.050447 0.383337
vt 0.028269 0.341844
vt 0.014612 0.296822
vt 0.010000 0.250000
vt 0.014612 0.203178
vt 0.028269 0.158156
vt 0.050447 0.116663
vt 0.080294 0.080294
vt 0.116663 0.050447
vt 0.158156 0.028269
vt 0.203178 0.014612
vt 0.250000 0.010000
vt 0.296822 0.014612
vt 0.341844 0.028269
vt 0.383337 0.050447
vt 0.419706 0.080294
vt 0.449553 0.116663
vt 0.439931 0.123092
vt 0.411523 0.088477
vt 0.376908 0.060069
vt 0.337416 0.038960
vt 0.294564 0.025961
vt 0.250000 0.021572
vt 0.205436 0.025961
vt 0.162584 0.038960
vt 0.123092 0.060069
vt 0.088477 0.088477
vt 0.060069 0.123092
vt 0.038960 0.162584
vt 0.025961 0.205436
vt 0.021572 0.250000
vt 0.025961 0.294564
vt 0.038960 0.337416
vt 0.060069 0.376908
vt 0.088477 0.411523
vt 0.123092 0.439931
vt 0.162584 0.461040
vt 0.205436 0.474039
vt 0.250000 0.478428
vt 0.294564 0.474039
vt 0.031250 1.000000
vt 0.031250 0.500000
vt 0.000000 1.000000
vt 0.000000 0.500000
vt 0.876908 0.060069
vt 0.883337 0.050447
vt 0.841844 0.028269
vt 0.796822 0.014612
vt 0.750000 0.010000
vt 0.703178 0.014612
vt 0.658156 0.028269
vt 0.616663 0.050447
vt 0.580294 0.080294
vt 0.550447 0.116663
vt 0.528269 0.158156
vt 0.514612 0.203178
vt 0.510000 0.250000
vt 0.514612 0.296822
vt 0.528269 0.341844
vt 0.550447 0.383337
vt 0.560069 0.376908
vt 0.538960 0.337416
vt 0.525961 0.294564
vt 0.521572 0.250000
vt 0.525961 0.205436
vt 0.538960 0.162584
vt 0.560069 0.123092
vt 0.588477 0.088477
vt 0.623092 0.060069
vt 0.662584 0.038960
vt 0.705436 0.025961
vt 0.750000 0.021572
vt 0.794564 0.025961
vt 0.837416 0.038960
vt 0.580294 0.419706
vt 0.616663 0.449553
vt 0.658156 0.471731
vt 0.703178 0.485388
vt 0.750000 0.490000
vt 0.796822 0.485388
vt 0.841844 0.471731
vt 0.883337 0.449553
vt 0.919706 0.419706
vt 0.949553 0.383337
vt 0.971731 0.341844
vt 0.985388 0.296822
vt 0.990000 0.250000
vt 0.985388 0.203178
vt 0.971731 0.158156
vt 0.949553 0.116663
vt 0.919706 0.080294
vt 0.911523 0.088477
vt 0.939931 0.123092
vt 0.961040 0.162584
vt 0.974039 0.205436
vt 0.978428 0.250000
vt 0.974039 0.294564
vt 0.961040 0.337416
vt 0.939931 0.376908
vt 0.911523 0.411523
vt 0.876908 0.439931
vt 0.837416 0.461040
vt 0.794564 0.474039
vt 0.750000 0.478428
vt 0.705436 0.474039
vt 0.662584 0.461040
vt 0.623092 0.439931
vt 0.588477 0.411523
vt 0.968750 0.716890
vt 0.968750 0.783110
vt 1.000000 0.783110
vt 1.000000 0.716890
vt 0.937500 0.716890
vt 0.937500 0.783110
vt 0.906250 0.716890
vt 0.906250 0.783110
vt 0.875000 0.716890
vt 0.875000 0.783110
vt 0.843750 0.783110
vt 0.843750 0.716890
vt 0.812500 0.783110
vt 0.812500 0.716890
vt 0.781250 0.783110
vt 0.781250 0.716890
vt 0.750000 0.783110
vt 0.750000 0.716890
vt 0.718750 0.783110
vt 0.718750 0.716890
vt 0.687500 0.783110
vt 0.687500 0.716890
vt 0.656250 0.783110
vt 0.656250 0.716890
vt 0.625000 0.783110
vt 0.625000 0.716890
vt 0.593750 0.783110
vt 0.593750 0.716890
vt 0.562500 0.783110
vt 0.562500 0.716890
vt 0.531250 0.716890
vt 0.531250 0.783110
vt 0.500000 0.783110
vt 0.500000 0.716890
vt 0.468750 0.783110
vt 0.468750 0.716890
vt 0.437500 0.783110
vt 0.437500 0.716890
vt 0.406250 0.783110
vt 0.406250 0.716890
vt 0.375000 0.783110
vt 0.375000 0.716890
vt 0.343750 0.716890
vt 0.343750 0.783110
vt 0.312500 0.716890
vt 0.312500 0.783110
vt 0.281250 0.716890
vt 0.281250 0.783110
vt 0.250000 0.716890
vt 0.250000 0.783110
vt 0.218750 0.716890
vt 0.218750 0.783110
vt 0.187500 0.716890
vt 0.187500 0.783110
vt 0.156250 0.716890
vt 0.156250 0.783110
vt 0.125000 0.716890
vt 0.125000 0.783110
vt 0.093750 0.716890
vt 0.093750 0.783110
vt 0.062500 0.716890
vt 0.062500 0.783110
vt 0.031250 0.716890
vt 0.031250 0.783110
vt 0.000000 0.716890
vt 0.000000 0.783110
s 0
f 1/1/1 2/2/1 4/3/1 3/4/1
f 3/4/2 4/3/2 6/5/2 5/6/2
f 5/6/3 6/5/3 8/7/3 7/8/3
f 7/8/4 8/7/4 10/9/4 9/10/4
f 9/10/5 10/9/5 12/11/5 11/12/5
f 11/12/6 12/11/6 14/13/6 13/14/6
f 13/14/7 14/13/7 16/15/7 15/16/7
f 15/16/8 16/15/8 18/17/8 17/18/8
f 17/18/9 18/17/9 20/19/9 19/20/9
f 19/20/10 20/19/10 22/21/10 21/22/10
f 21/22/11 22/21/11 24/23/11 23/24/11
f 23/24/12 24/23/12 26/25/12 25/26/12
f 25/26/13 26/25/13 28/27/13 27/28/13
f 27/28/14 28/27/14 30/29/14 29/30/14
f 29/30/15 30/29/15 32/31/15 31/32/15
f 31/32/16 32/31/16 34/33/16 33/34/16
f 33/34/17 34/33/17 36/35/17 35/36/17
f 35/36/18 36/35/18 38/37/18 37/38/18
f 37/38/19 38/37/19 40/39/19 39/40/19
f 39/40/20 40/39/20 42/41/20 41/42/20
f 41/42/21 42/41/21 44/43/21 43/44/21
f 43/44/22 44/43/22 46/45/22 45/46/22
f 45/46/23 46/45/23 48/47/23 47/48/23
f 47/48/24 48/47/24 50/49/24 49/50/24
f 49/50/25 50/49/25 52/51/25 51/52/25
f 51/52/26 52/51/26 54/53/26 53/54/26
f 53/54/27 54/53/27 56/55/27 55/56/27
f 55/56/28 56/55/28 58/57/28 57/58/28
f 57/58/29 58/57/29 60/59/29 59/60/29
f 59/60/30 60/59/30 62/61/30 61/62/30
f 95/63/31 22/64/31 20/65/31 18/66/31 16/67/31 14/68/31 12/69/31 10/70/31 8/71/31 6/72/31 96/73/31 86/74/31 88/75/31 87/76/31 92/77/31 85/78/31 84/79/31 83/80/31
f 96/73/31 6/72/31 4/81/31 2/82/31 64/83/31 62/84/31 60/85/31 58/86/31 56/87/31 54/88/31 52/89/31 50/90/31 48/91/31 46/92/31 44/93/31 42/94/31 40/95/31 38/96/31 36/97/31 34/98/31 32/99/31 30/100/31 28/101/31 26/102/31 24/103/31 22/64/31 95/63/31 81/104/31 82/105/31 80/106/31 91/107/31 78/108/31 79/109/31 77/110/31 94/111/31 75/112/31 76/113/31 74/114/31 90/115/31 71/116/31 72/117/31 73/118/31 93/119/31 68/120/31 70/121/31 69/122/31 89/123/31 65/124/31 67/125/31 66/126/31
f 61/62/32 62/61/32 64/127/32 63/128/32
f 63/128/33 64/127/33 2/129/33 1/130/33
f 108/131/34 27/132/34 29/133/34 31/134/34 33/135/34 35/136/34 37/137/34 39/138/34 41/139/34 43/140/34 45/141/34 47/142/34 49/143/34 51/144/34 53/145/34 55/146/34 124/147/34 116/148/34 117/149/34 115/150/34 127/151/34 112/152/34 114/153/34 113/154/34 123/155/34 109/156/34 111/157/34 110/158/34 128/159/34 106/160/34
f 124/147/34 55/146/34 57/161/34 59/162/34 61/163/34 63/164/34 1/165/34 3/166/34 5/167/34 7/168/34 9/169/34 11/170/34 13/171/34 15/172/34 17/173/34 19/174/34 21/175/34 23/176/34 25/177/34 27/132/34 108/131/34 107/178/34 122/179/34 103/180/34 105/181/34 104/182/34 126/183/34 101/184/34 102/185/34 100/186/34 121/187/34 98/188/34 99/189/34 97/190/34 125/191/34 119/192/34 120/193/34 118/194/34
f 99/195/17 66/196/17 67/197/17 97/198/17
f 98/199/18 96/200/18 66/196/18 99/195/18
f 121/201/19 86/202/19 96/200/19 98/199/19
f 100/203/20 88/204/20 86/202/20 121/201/20
f 87/205/21 88/204/21 100/203/21 102/206/21
f 92/207/22 87/205/22 102/206/22 101/208/22
f 85/209/23 92/207/23 101/208/23 126/210/23
f 84/211/24 85/209/24 126/210/24 104/212/24
f 83/213/25 84/211/25 104/212/25 105/214/25
f 95/215/26 83/213/26 105/214/26 103/216/26
f 81/217/27 95/215/27 103/216/27 122/218/27
f 82/219/28 81/217/28 122/218/28 107/220/28
f 80/221/29 82/219/29 107/220/29 108/222/29
f 91/223/30 80/221/30 108/222/30 106/224/30
f 128/225/32 78/226/32 91/223/32 106/224/32
f 79/227/33 78/226/33 128/225/33 110/228/33
f 77/229/1 79/227/1 110/228/1 111/230/1
f 94/231/2 77/229/2 111/230/2 109/232/2
f 75/233/3 94/231/3 109/232/3 123/234/3
f 76/235/4 75/233/4 123/234/4 113/236/4
f 114/237/5 74/238/5 76/235/5 113/236/5
f 112/239/6 90/240/6 74/238/6 114/237/6
f 127/241/7 71/242/7 90/240/7 112/239/7
f 115/243/8 72/244/8 71/242/8 127/241/8
f 117/245/9 73/246/9 72/244/9 115/243/9
f 116/247/10 93/248/10 73/246/10 117/245/10
f 124/249/11 68/250/11 93/248/11 116/247/11
f 118/251/12 70/252/12 68/250/12 124/249/12
f 120/253/13 69/254/13 70/252/13 118/251/13
f 119/255/14 89/256/14 69/254/14 120/253/14
f 125/257/15 65/258/15 89/256/15 119/255/15
f 97/259/16 67/260/16 65/258/16 125/257/16
